<svg xmlns="http://www.w3.org/2000/svg" width="28" height="20" fill="none"><path fill="#BF993B" stroke="#000" stroke-width="1.2" d="m1.425 18.002.001.598H7.4c.832 0 1.369 0 1.826-.122a3.6 3.6 0 0 0 2.553-2.56c.12-.458.119-.995.116-1.827v-.198c-.003-.827-.004-1.362-.127-1.817a3.6 3.6 0 0 0-2.552-2.544c-.455-.12-.99-.12-1.817-.12h-.767c-.747 0-1.34 0-1.821.035-.492.037-.913.114-1.303.293a3.6 3.6 0 0 0-1.774 1.78c-.178.39-.253.811-.288 1.303-.035.48-.033 1.075-.03 1.821v.024z"/><path fill="#FFB921" d="M2.011 13.834c0-1.342 0-2.013.262-2.525a2.4 2.4 0 0 1 1.047-1.048C3.833 10 4.504 10 5.846 10h1.852c1.117 0 1.675 0 2.115.182.588.244 1.054.71 1.297 1.297.183.44.183 1 .183 2.116s0 1.675-.183 2.115a2.4 2.4 0 0 1-1.297 1.297c-.44.182-.998.182-2.115.182H2.011z"/><path fill="#000" d="M6.09 15.985c-.547.007-.958-.39-1.173-.648a2 2 0 0 1-.307-.508l1.002-.248c.126.195.27.375.457.483l1.331-.016a1 1 0 0 0 .175-.136.8.8 0 0 0 .148-.16l-.006-.448q0-.036-.028-.047l-2.238-.51a.93.93 0 0 1-.745-.904l-.006-.41c-.003-.212.022-.354.178-.553.13-.167.4-.415.575-.527.218-.144.377-.17.615-.173l1.235-.014c.546-.007.967.39 1.173.647.144.18.234.336.307.509l-1.002.248c-.126-.196-.27-.375-.457-.483l-1.226.015a1 1 0 0 0-.174.136.8.8 0 0 0-.148.159l.005.402c0 .031.028.046.028.046l2.247.517a.94.94 0 0 1 .745.905l.006.45c.003.212-.021.354-.177.553-.13.167-.4.414-.575.526-.219.145-.377.17-.615.173z"/><path fill="#BF993B" stroke="#000" stroke-width="1.2" d="m7.425 18.002.001.598H13.4c.832 0 1.369 0 1.826-.122a3.6 3.6 0 0 0 2.553-2.56c.12-.458.119-.995.116-1.827v-.198c-.003-.827-.004-1.362-.127-1.817a3.6 3.6 0 0 0-2.552-2.544c-.455-.12-.99-.12-1.817-.12h-.767c-.747 0-1.34 0-1.821.035-.492.037-.913.114-1.303.293a3.6 3.6 0 0 0-1.774 1.78c-.178.39-.253.811-.288 1.303-.035.48-.033 1.075-.03 1.821v.024z"/><path fill="#FFB921" d="M8.011 13.834c0-1.342 0-2.013.262-2.525a2.4 2.4 0 0 1 1.047-1.048C9.833 10 10.504 10 11.846 10h1.852c1.117 0 1.675 0 2.115.182.588.244 1.054.71 1.297 1.297.183.44.183 1 .183 2.116s0 1.675-.183 2.115a2.4 2.4 0 0 1-1.297 1.297c-.44.182-.998.182-2.115.182H8.011z"/><path fill="#000" d="M12.09 15.985c-.547.007-.958-.39-1.173-.648a2 2 0 0 1-.307-.508l1.002-.248c.126.195.27.375.457.483l1.331-.016a1 1 0 0 0 .175-.136.8.8 0 0 0 .148-.16l-.007-.448q0-.036-.027-.047l-2.238-.51a.93.93 0 0 1-.745-.904l-.006-.41c-.003-.212.022-.354.178-.553.13-.167.4-.415.575-.527.218-.144.377-.17.615-.173l1.235-.014c.547-.007.967.39 1.173.647.144.18.234.336.307.509l-1.002.248c-.126-.196-.27-.375-.457-.483l-1.226.015a1 1 0 0 0-.174.136.8.8 0 0 0-.148.159l.005.402c0 .031.027.046.027.046l2.248.517a.94.94 0 0 1 .745.905l.006.45c.003.212-.021.354-.177.553-.13.167-.4.414-.575.526-.219.145-.377.17-.615.173z"/><path fill="#BF993B" stroke="#000" stroke-width="1.2" d="m7.425 15.002.001.598H13.4c.832 0 1.369 0 1.826-.122a3.6 3.6 0 0 0 2.553-2.56c.12-.458.119-.995.116-1.827v-.198c-.003-.827-.004-1.362-.127-1.817a3.6 3.6 0 0 0-2.552-2.544c-.455-.12-.99-.12-1.817-.12h-.767c-.747 0-1.34 0-1.821.035-.492.037-.913.114-1.303.293a3.6 3.6 0 0 0-1.774 1.78c-.178.39-.253.811-.288 1.303-.035.48-.033 1.075-.03 1.821v.024z"/><path fill="#FFB921" d="M8.011 10.834c0-1.342 0-2.013.262-2.526.23-.45.596-.817 1.047-1.047C9.833 7 10.504 7 11.846 7h1.852c1.117 0 1.675 0 2.115.182.588.244 1.054.71 1.297 1.297.183.44.183 1 .183 2.116s0 1.675-.183 2.115a2.4 2.4 0 0 1-1.297 1.297c-.44.183-.998.183-2.115.183H8.011z"/><path fill="#000" d="M12.09 12.985c-.547.007-.958-.39-1.173-.648a2 2 0 0 1-.307-.508l1.002-.248c.126.195.27.375.457.483l1.331-.016a1 1 0 0 0 .175-.136.8.8 0 0 0 .148-.16l-.007-.448q0-.036-.027-.047l-2.238-.51a.93.93 0 0 1-.745-.904l-.006-.41c-.003-.212.022-.354.178-.553.13-.167.4-.415.575-.527.218-.144.377-.17.615-.173l1.235-.014c.547-.007.967.39 1.173.647.144.18.234.336.307.509l-1.002.248c-.126-.196-.27-.375-.457-.483l-1.226.015a1 1 0 0 0-.174.136.8.8 0 0 0-.148.159l.005.402c0 .031.027.046.027.046l2.248.517a.94.94 0 0 1 .745.905l.006.45c.003.212-.021.354-.177.553-.13.167-.4.414-.575.526-.219.145-.377.17-.615.173z"/><path fill="#BF993B" stroke="#000" stroke-width="1.2" d="m13.781 18.016.002.598h7.428c.82 0 1.473 0 1.999-.043.538-.044.998-.136 1.418-.35a3.6 3.6 0 0 0 1.574-1.58c.213-.42.304-.88.346-1.418.042-.527.04-1.179.037-1.999v-.026l-.001-.4v-.026c-.003-.816-.005-1.465-.05-1.988-.044-.536-.137-.993-.352-1.41a3.6 3.6 0 0 0-1.572-1.569c-.42-.213-.876-.304-1.412-.348-.524-.043-1.172-.043-1.988-.043h-2.07c-.82 0-1.472 0-1.998.043-.54.045-.998.137-1.419.351a3.6 3.6 0 0 0-1.573 1.579c-.214.42-.304.88-.347 1.42-.041.525-.04 1.178-.037 1.998v.026z"/><path fill="#FFB921" d="M14.365 12.8c0-1.68 0-2.52.327-3.162a3 3 0 0 1 1.31-1.311C16.646 8 17.486 8 19.166 8h2.318c1.398 0 2.097 0 2.648.228a3 3 0 0 1 1.624 1.624c.228.551.228 1.25.228 2.648s0 2.097-.228 2.648a3 3 0 0 1-1.624 1.624c-.55.228-1.25.228-2.648.228h-7.118z"/><path fill="#000" d="M19.47 15.492c-.684.008-1.199-.488-1.468-.81a2.4 2.4 0 0 1-.385-.637l1.255-.31c.158.244.338.469.572.604l1.667-.02c.01 0 .098-.06.218-.17s.185-.19.185-.2l-.008-.562q0-.045-.034-.058l-2.802-.638c-.62-.14-.926-.65-.932-1.132l-.008-.513c-.003-.266.027-.444.223-.693.163-.209.5-.519.72-.66.273-.18.472-.212.77-.215l1.545-.019c.685-.008 1.21.489 1.47.81.179.226.292.422.384.637l-1.255.311c-.158-.245-.338-.47-.572-.604l-1.534.018c-.011 0-.099.06-.219.17s-.185.19-.185.2l.007.502c0 .04.034.059.034.059l2.814.647c.61.14.925.65.932 1.133l.008.562c.004.266-.027.444-.222.693a3.6 3.6 0 0 1-.72.659c-.274.18-.472.213-.77.216z"/><path fill="#BF993B" stroke="#000" stroke-width="1.2" d="m13.781 15.016.002.598h7.428c.82 0 1.473 0 1.999-.043.538-.044.998-.136 1.418-.35a3.6 3.6 0 0 0 1.574-1.58c.213-.42.304-.88.346-1.418.042-.527.04-1.179.037-1.999v-.026l-.001-.4v-.026c-.003-.816-.005-1.465-.05-1.988-.044-.536-.137-.993-.352-1.41a3.6 3.6 0 0 0-1.572-1.569c-.42-.213-.876-.304-1.412-.348-.524-.043-1.172-.043-1.988-.043h-2.07c-.82 0-1.472 0-1.998.043-.54.045-.998.137-1.419.351a3.6 3.6 0 0 0-1.573 1.579c-.214.42-.304.88-.347 1.42-.041.525-.04 1.178-.037 1.998v.026z"/><path fill="#FFB921" d="M14.365 9.8c0-1.68 0-2.52.327-3.162a3 3 0 0 1 1.31-1.311C16.646 5 17.486 5 19.166 5h2.318c1.398 0 2.097 0 2.648.228a3 3 0 0 1 1.624 1.624c.228.551.228 1.25.228 2.648s0 2.097-.228 2.648a3 3 0 0 1-1.624 1.624c-.55.228-1.25.228-2.648.228h-7.118z"/><path fill="#000" d="M19.47 12.492c-.684.008-1.199-.488-1.468-.81a2.4 2.4 0 0 1-.385-.637l1.255-.31c.158.244.338.469.572.604l1.667-.02c.01 0 .098-.06.218-.17s.185-.19.185-.2l-.008-.562q0-.045-.034-.058L18.67 9.69c-.62-.14-.926-.65-.932-1.132l-.008-.513c-.003-.266.027-.444.223-.693.163-.209.5-.519.72-.66.273-.18.472-.212.77-.215l1.545-.019c.685-.008 1.21.489 1.47.81.179.226.292.421.384.637l-1.255.311c-.158-.245-.338-.47-.572-.604l-1.534.018c-.011 0-.099.06-.219.17s-.185.19-.185.2l.007.502c0 .04.034.059.034.059l2.814.647c.61.14.925.65.932 1.133l.008.562c.004.266-.027.444-.222.693a3.6 3.6 0 0 1-.72.659c-.274.18-.472.213-.77.216z"/><path fill="#BF993B" stroke="#000" stroke-width="1.2" d="m13.781 12.016.002.598h7.428c.82 0 1.473 0 1.999-.043.538-.044.998-.136 1.418-.35a3.6 3.6 0 0 0 1.574-1.58c.213-.42.304-.88.346-1.418.042-.527.04-1.179.037-1.999v-.026l-.001-.4v-.026c-.003-.816-.005-1.465-.05-1.988-.044-.536-.137-.993-.352-1.41a3.6 3.6 0 0 0-1.572-1.569c-.42-.213-.876-.304-1.412-.348-.524-.043-1.172-.043-1.988-.043h-2.07c-.82 0-1.472 0-1.998.043-.54.044-.998.137-1.419.351a3.6 3.6 0 0 0-1.573 1.579c-.214.42-.304.88-.347 1.42-.041.525-.04 1.178-.037 1.998v.026z"/><path fill="#FFB921" d="M14.365 6.8c0-1.68 0-2.52.327-3.162a3 3 0 0 1 1.31-1.311C16.646 2 17.486 2 19.166 2h2.318c1.398 0 2.097 0 2.648.228a3 3 0 0 1 1.624 1.624c.228.551.228 1.25.228 2.648s0 2.097-.228 2.648a3 3 0 0 1-1.624 1.624c-.55.228-1.25.228-2.648.228h-7.118z"/><path fill="#000" d="M19.47 9.492c-.684.008-1.199-.488-1.468-.81a2.4 2.4 0 0 1-.385-.637l1.255-.31c.158.244.338.469.572.604l1.667-.02c.01 0 .098-.06.218-.17s.185-.19.185-.2l-.008-.562q0-.045-.034-.058L18.67 6.69c-.62-.14-.926-.65-.932-1.132l-.008-.513c-.003-.266.027-.444.223-.693.163-.209.5-.519.72-.66.273-.18.472-.212.77-.215l1.545-.019c.685-.008 1.21.489 1.47.81.179.226.292.421.384.637l-1.255.311c-.158-.245-.338-.47-.572-.604l-1.534.018c-.011 0-.099.06-.219.17s-.185.19-.185.2l.007.502c0 .04.034.059.034.059l2.814.647c.61.14.925.65.932 1.133l.008.562c.004.266-.027.444-.222.693a3.6 3.6 0 0 1-.72.659c-.274.18-.472.213-.77.216z"/></svg>