<svg width="62" height="42" viewBox="0 0 62 42" fill="none" xmlns="http://www.w3.org/2000/svg">
<g clip-path="url(#clip0_15187_151021)">
<path d="M23.5989 3.75992C27.2129 2.79162 30.8848 4.99568 31.8494 8.59595L32.0168 9.2204L47.4612 5.08208C50.8595 4.17157 54.3118 6.24423 55.2189 9.62957L59.2437 24.7294C60.1507 28.1146 58.1971 31.6357 54.799 32.5465L22.8131 41.1171C19.4149 42.0275 15.9625 39.9549 15.0554 36.5696L14.793 35.5864L14.06 35.7828C10.446 36.7511 6.77419 34.547 5.80948 30.9468L1.96612 16.6032C1.00143 13.0029 3.07928 9.25818 6.6933 8.28976L23.5989 3.75992Z" fill="black" fill-opacity="0.05"/>
<path fill-rule="evenodd" clip-rule="evenodd" d="M47.7926 1.88837C51.1909 0.977795 54.6435 3.04994 55.5506 6.43531L59.5751 21.5359C60.4822 24.9212 58.5283 28.442 55.13 29.3526L23.1447 37.9231C19.7464 38.8336 16.2938 36.7615 15.3867 33.3761L11.3621 18.2756C10.455 14.8902 12.409 11.3694 15.8073 10.4588L47.7926 1.88837Z" fill="black"/>
<path fill-rule="evenodd" clip-rule="evenodd" d="M48.6766 5.29813C51.1104 4.64598 53.6218 6.12622 54.2858 8.60434L57.8927 22.0655C58.5567 24.5436 57.1219 27.0812 54.6881 27.7333L22.7553 36.248C20.3214 36.9002 17.8101 35.4199 17.1461 32.9418L13.5392 19.4807C12.8752 17.0026 14.31 14.465 16.7438 13.8128L48.6766 5.29813Z" fill="#705AAF"/>
<path fill-rule="evenodd" clip-rule="evenodd" d="M48.285 3.85796C50.7198 3.20556 53.232 4.68636 53.8963 7.16541L57.468 20.2939C58.1322 22.7729 56.6969 25.3115 54.2622 25.9639L22.3174 34.4818C19.8826 35.1342 17.3506 33.6534 16.6863 31.1743L13.1344 18.0459C12.4701 15.5668 13.9054 13.0283 16.3402 12.3759L48.285 3.85796Z" fill="#494949"/>
<path d="M48.285 3.85774C50.7197 3.20537 53.2325 4.68643 53.8967 7.16547L57.4681 20.2939C58.1323 22.773 56.6965 25.3111 54.2618 25.9635L22.3174 34.4815C19.8826 35.1339 17.3507 33.6529 16.6864 31.1739L13.1345 18.0462C12.4702 15.5672 13.9058 13.0282 16.3406 12.3758L48.285 3.85774ZM16.8573 14.3079C15.5224 14.6659 14.6792 16.0837 15.0663 17.5286L18.617 30.6515L18.6183 30.6562C19.0034 32.0935 20.4569 32.9095 21.7997 32.5496L21.8016 32.5491L53.7439 24.0307C55.0767 23.6735 55.9204 22.2616 55.5383 20.8191L51.9669 7.69066L51.9649 7.68311C51.5777 6.23804 50.1378 5.43186 48.8026 5.78959L48.7998 5.79035L16.8573 14.3079Z" fill="url(#paint0_linear_15187_151021)"/>
<path opacity="0.33" fill-rule="evenodd" clip-rule="evenodd" d="M49.1458 11.3066L36.1321 14.7936L35.6543 13.0103L48.668 9.52325L49.1458 11.3066Z" fill="white"/>
<path fill-rule="evenodd" clip-rule="evenodd" d="M23.6004 0.763732C27.2145 -0.204653 30.8862 1.99904 31.8509 5.59935L35.6944 19.9433C36.6591 23.5436 34.5811 27.288 30.967 28.2563L14.0616 32.7861C10.4476 33.7545 6.77579 31.5508 5.8111 27.9505L1.96764 13.6065C1.00294 10.0062 3.08093 6.26191 6.69499 5.29352L23.6004 0.763732ZM30.0579 6.07978C29.3504 3.43913 26.6743 1.8618 24.0808 2.55673L7.17543 7.08652C4.58193 7.78144 3.05307 10.4855 3.76064 13.1261L7.60409 27.4701C8.31165 30.1107 10.9877 31.6881 13.5812 30.9931L30.4866 26.4633C33.0801 25.7684 34.6089 23.0644 33.9014 20.4238L30.0579 6.07978Z" fill="black"/>
<path fill-rule="evenodd" clip-rule="evenodd" d="M24.0808 2.55666C26.6743 1.86174 29.3504 3.43906 30.0579 6.07971L33.9014 20.4237C34.6089 23.0643 33.0801 25.7684 30.4866 26.4633L13.5812 30.9931C10.9877 31.688 8.31166 30.1107 7.6041 27.47L3.76064 13.1261C3.05308 10.4854 4.58194 7.78138 7.17544 7.08645L24.0808 2.55666Z" fill="white"/>
<path fill-rule="evenodd" clip-rule="evenodd" d="M14.7682 23.4428L17.5089 22.7085L14.3267 10.8323L11.586 11.5667L14.7682 23.4428Z" fill="black"/>
<path fill-rule="evenodd" clip-rule="evenodd" d="M22.0832 12.02C22.0726 11.9803 21.9353 11.876 21.6714 11.706C21.4071 11.5365 21.2573 11.4563 21.2213 11.466L18.0548 12.3144L19.996 19.5588L23.1624 18.7104C23.1985 18.7007 23.2882 18.5568 23.4322 18.2775C23.5759 17.9987 23.6425 17.8392 23.6319 17.7996L22.0832 12.02ZM24.0258 10.7788C24.1267 10.964 24.2164 11.2017 24.2942 11.4919L25.811 17.1528C25.8888 17.4432 25.9299 17.6937 25.9351 17.9045C25.9402 18.1154 25.8965 18.3604 25.8044 18.6397C25.7289 18.8863 25.6067 19.1736 25.4377 19.5017C25.2683 19.8302 25.1116 20.0841 24.967 20.2641C24.7971 20.4936 24.6293 20.6589 24.4634 20.7598C24.2977 20.8609 24.0828 20.9466 23.819 21.0173L18.4217 22.4635L15.2395 10.5873L20.6368 9.14109C20.9006 9.07042 21.1297 9.03762 21.3237 9.04207C21.5178 9.04663 21.7457 9.10588 22.0075 9.21936C22.2383 9.31334 22.5062 9.46065 22.8107 9.66178C23.1154 9.8633 23.3599 10.045 23.5451 10.2076C23.7644 10.4034 23.9248 10.5938 24.0258 10.7788Z" fill="black"/>
<path fill-rule="evenodd" clip-rule="evenodd" d="M8.26074 28.936C9.39419 30.6572 11.5138 31.5469 13.5811 30.993L30.4865 26.4632C32.5537 25.9093 33.9445 24.079 34.0655 22.0217C33.3748 23.1692 32.2193 24.0772 30.7745 24.4643L12.3322 29.4059C10.8874 29.793 9.43268 29.5845 8.26074 28.936Z" fill="#CCCCCC"/>
</g>
<defs>
<linearGradient id="paint0_linear_15187_151021" x1="32.3325" y1="8.09072" x2="32.2147" y2="31.7507" gradientUnits="userSpaceOnUse">
<stop stop-color="#6D56F7"/>
<stop offset="0.716346" stop-color="#DF6CFF"/>
<stop offset="1" stop-color="#BC6DFD"/>
</linearGradient>
<clipPath id="clip0_15187_151021">
<rect width="61.1064" height="40.7376" fill="white" transform="translate(0.205078 0.489258)"/>
</clipPath>
</defs>
</svg>
