<svg width="49" height="40" fill="none" xmlns="http://www.w3.org/2000/svg"><path d="M1.294 1.419L0 2.837V6.05l1.156 1.025 1.157 1.005h7.879v1.773H3.528V9.36c0-.493-.02-.493-1.764-.493H0v3.744h1.352c1.235 0 1.372-.04 1.686-.513l.333-.512.53.512.529.513h8.859l1.195-1.242 1.196-1.221V6.995l-1.254-1.143-1.274-1.123H5.488V2.76h5.88V3.94h3.528V0h-1.254c-1.157 0-1.294.04-1.647.532l-.411.552-.55-.552L10.467 0H2.587L1.294 1.419zm15.366.256V3.35h1.372v6.62l1.333 1.32 1.333 1.32h7.84l1.313-1.34 1.313-1.339V3.35h1.176V0h-6.076v1.675c0 1.655 0 1.675.49 1.675h.49v6.108h-4.116V3.35h1.176V0H16.66v1.675zm16.66 0V3.35h1.372v6.108H33.32v3.153h7.84V9.458h-.686c-.686 0-.686 0-.686-.887v-.886h7.37l.92-.946.922-.946V2.246l-1.137-1.123L46.726 0H33.32v1.675zm10.74 2.7l-.058 1.044-2.097.059-2.117.059V3.35h4.332l-.06 1.024zM0 15.27v1.675h1.372v6.108H0v3.35h14.23l.725-.749.725-.749v-4.413h-3.92v2.561H6.468v-1.97h2.254L8.663 19.9l-.078-1.182H6.468v-1.773h5.292v2.561h3.92v-4.453l-.745-.729-.745-.729H0v1.675zm35.045-.079l-1.725 1.596v6.404l1.744 1.616 1.744 1.596h9.37l1.41-1.439L49 23.547v-2.66h-3.92v2.167h-6.664v-6.108h6.664v1.97H49v-5.32h-1.45c-1.392 0-1.47.04-1.96.61l-.51.612-.51-.611-.51-.61h-7.31l-1.705 1.595zM0 28.965v1.577h1.372v6.305H0V40h14.406l.647-.788c.627-.749.627-.769.627-2.936v-2.187h-3.92v2.758H6.468v-1.97h2.156v-2.365H6.468v-1.97h5.292V33.3h3.92v-2.187c0-2.167 0-2.187-.627-2.936l-.647-.788H0v1.576zm16.66-.02v1.577l.647.06.627.058.059 3.094.059 3.113H16.66V40h14.445l.608-.769.627-.788V32.71h-3.92v4.138h-5.292v-6.305H24.5v-3.153h-7.84v1.557zm16.66 0v1.577l.647.06.627.058.059 3.094.059 3.113H33.32V40h14.445l.608-.769.627-.788V32.71h-3.92v4.138h-5.292v-6.305h1.372v-3.153h-7.84v1.557zm-1.02-3.98c-.058-1.379-.077-1.418-.587-1.477-.53-.06-.549-.119-.549-1.203 0-1.122 0-1.143-.921-1.793l-.902-.67.764-.65c.412-.355.823-.65.921-.65.079 0 .138-.65.138-1.439v-1.438l-1.04-1.025-1.038-1.024H16.66v3.35h1.372v6.108H16.66v3.35h7.448v-1.675c0-1.655 0-1.675-.49-1.675-.45 0-.49-.059-.49-.985v-.985h2.744v3.862l.745.729.745.729h4.998l-.06-1.439zm-6.428-5.913h-2.744V17.02h2.744v2.032z" fill="#fff"/></svg>