<svg width="150" height="100" viewBox="0 0 150 100" fill="none" xmlns="http://www.w3.org/2000/svg">
<path d="M138.24 2H11.76C6.37 2 2 6.31 2 11.63V88.37C2 93.69 6.37 98 11.76 98H138.23C143.62 98 147.99 93.69 147.99 88.37V11.63C147.99 6.31 143.62 2 138.23 2H138.24ZM16.37 63.66H36.68C37.78 63.66 38.68 64.56 38.68 65.66C38.68 66.76 37.78 67.66 36.68 67.66H16.37C15.27 67.66 14.37 66.76 14.37 65.66C14.37 64.56 15.27 63.66 16.37 63.66ZM68.89 82.67H16.37C15.27 82.67 14.37 81.77 14.37 80.67C14.37 79.57 15.27 78.67 16.37 78.67H68.89C69.99 78.67 70.89 79.57 70.89 80.67C70.89 81.77 69.99 82.67 68.89 82.67ZM68.89 67.66H48.58C47.48 67.66 46.58 66.76 46.58 65.66C46.58 64.56 47.48 63.66 48.58 63.66H68.89C69.99 63.66 70.89 64.56 70.89 65.66C70.89 66.76 69.99 67.66 68.89 67.66ZM101.11 67.66H80.8C79.7 67.66 78.8 66.76 78.8 65.66C78.8 64.56 79.7 63.66 80.8 63.66H101.11C102.21 63.66 103.11 64.56 103.11 65.66C103.11 66.76 102.21 67.66 101.11 67.66ZM98.51 34.14V20.44C98.51 17.85 100.61 15.75 103.2 15.75H128.44C131.03 15.75 133.14 17.85 133.14 20.44V34.14C133.14 36.73 131.04 38.83 128.44 38.83H103.2C100.61 38.83 98.51 36.73 98.51 34.14ZM133.32 67.66H113.01C111.91 67.66 111.01 66.76 111.01 65.66C111.01 64.56 111.91 63.66 113.01 63.66H133.32C134.42 63.66 135.32 64.56 135.32 65.66C135.32 66.76 134.42 67.66 133.32 67.66Z" fill="#666666"/>
</svg>
