<svg width="523" height="206" viewBox="0 0 523 206" fill="none" xmlns="http://www.w3.org/2000/svg">
<path d="M167.73 87.5999C167.73 81.3399 167.17 75.3498 166.13 69.5898H85.6499V102.59L132 102.6C130.12 113.58 124.07 122.94 114.8 129.18V150.59H142.39C158.5 135.68 167.73 113.64 167.73 87.5999Z" fill="#4285F4"/>
<path d="M114.81 129.18C107.13 134.36 97.2399 137.39 85.6699 137.39C63.3199 137.39 44.3599 122.33 37.5699 102.03H9.10986V124.11C23.2099 152.09 52.1899 171.29 85.6699 171.29C108.81 171.29 128.25 163.68 142.4 150.58L114.81 129.18Z" fill="#34A853"/>
<path d="M34.89 85.6497C34.89 79.9497 35.84 74.4397 37.57 69.2597V47.1797H9.10999C3.27999 58.7497 0 71.8097 0 85.6497C0 99.4897 3.28999 112.55 9.10999 124.12L37.57 102.04C35.84 96.8597 34.89 91.3497 34.89 85.6497Z" fill="#FABB05"/>
<path d="M85.6699 33.9C98.2999 33.9 109.61 38.25 118.54 46.75L142.99 22.32C128.14 8.49001 108.78 0 85.6699 0C52.1999 0 23.2099 19.2 9.10986 47.18L37.5699 69.26C44.3599 48.96 63.3199 33.9 85.6699 33.9Z" fill="#E94235"/>
</svg>