<?xml version="1.0" encoding="UTF-8"?>
<svg id="paypal" xmlns="http://www.w3.org/2000/svg" viewBox="0 0 25.58 30.18">
  <defs><style>.cls-1 {fill: #253b80;}.cls-2 {fill: #222d65;}.cls-3 {fill: #179bd7;}</style></defs>
  <path class="cls-1" d="M7.27,29.15l.52-3.32-1.16-.03H1.06L4.93,1.29c.01-.07,.05-.14,.11-.19,.06-.05,.13-.08,.21-.08H14.62c3.11,0,5.26,.65,6.39,1.93,.53,.6,.86,1.23,1.02,1.92,.17,.72,.17,1.59,0,2.64v.08s-.01,.68-.01,.68l.53,.3c.44,.23,.8,.5,1.07,.81,.45,.51,.74,1.16,.86,1.94,.13,.8,.08,1.74-.12,2.81-.24,1.23-.63,2.3-1.15,3.18-.48,.81-1.1,1.48-1.83,2-.7,.49-1.52,.87-2.46,1.11-.91,.24-1.94,.35-3.07,.35h-.73c-.52,0-1.03,.19-1.43,.52-.4,.34-.66,.81-.74,1.33l-.06,.3-.92,5.85-.04,.22c-.01,.07-.03,.1-.06,.12-.02,.02-.06,.03-.1,.03,0,0-4.51,0-4.51,0Z"/>
  <path class="cls-3" d="M23.05,7.67h0c-.03,.18-.06,.36-.1,.55-1.24,6.35-5.47,8.55-10.87,8.55h-2.75c-.66,0-1.22,.48-1.32,1.13h0l-1.41,8.94-.4,2.53c-.07,.43,.26,.81,.7,.81h4.88c.58,0,1.07-.42,1.16-.99l.05-.25,.92-5.83,.06-.32c.09-.57,.58-.99,1.16-.99h.73c4.73,0,8.43-1.92,9.51-7.48,.45-2.32,.22-4.26-.98-5.62-.36-.41-.81-.75-1.34-1.03Z"/>
  <path class="cls-2" d="M21.75,7.15c-.19-.05-.38-.11-.58-.15-.2-.04-.41-.08-.62-.12-.74-.12-1.56-.18-2.43-.18h-7.35c-.18,0-.35,.04-.51,.11-.34,.16-.59,.48-.65,.88l-1.56,9.91-.05,.29c.1-.65,.66-1.13,1.32-1.13h2.75c5.4,0,9.64-2.19,10.87-8.55,.04-.19,.07-.37,.1-.55-.31-.17-.65-.31-1.02-.43-.09-.03-.18-.06-.28-.09Z"/>
  <path class="cls-1" d="M9.61,7.7c.06-.39,.31-.71,.65-.88,.15-.07,.33-.11,.51-.11h7.35c.87,0,1.68,.06,2.43,.18,.21,.03,.42,.07,.62,.12,.2,.05,.4,.09,.58,.15,.09,.03,.19,.06,.28,.09,.36,.12,.7,.26,1.02,.43,.37-2.35,0-3.94-1.27-5.39-1.4-1.59-3.92-2.28-7.16-2.28H5.24c-.66,0-1.22,.48-1.33,1.13L0,25.9c-.08,.49,.3,.93,.8,.93H6.6l1.45-9.23,1.56-9.91Z"/>
</svg>