<svg width="106" height="34" viewBox="0 0 106 34" fill="none" xmlns="http://www.w3.org/2000/svg">
<g clip-path="url(#clip0_193_21)">
<path d="M105.41 9.78C104.45 7.035 101.835 5.065 98.76 5.065H98.695C96.7 5.065 94.895 5.895 93.615 7.23C92.335 5.895 90.53 5.065 88.535 5.065H88.47C86.715 5.065 85.11 5.71 83.875 6.77V6.23C83.835 5.69 83.39 5.265 82.84 5.265H78.125C77.55 5.265 77.085 5.73 77.085 6.31V31.91C77.085 32.485 77.55 32.955 78.125 32.955H82.84C83.365 32.955 83.8 32.56 83.87 32.055V13.675C83.87 13.615 83.87 13.55 83.875 13.49C83.95 12.67 84.55 11.995 85.5 11.91H86.37C86.765 11.945 87.1 12.085 87.365 12.295C87.775 12.625 88.005 13.125 88.005 13.675L88.025 31.96C88.025 32.535 88.495 33.005 89.07 33.005H93.785C94.34 33.005 94.795 32.565 94.82 32.01V13.655C94.815 13.05 95.095 12.505 95.585 12.18C95.825 12.025 96.115 11.92 96.45 11.89H97.32C98.34 11.98 98.955 12.75 98.955 13.655L98.975 31.915C98.975 32.49 99.445 32.96 100.02 32.96H104.735C105.31 32.96 105.775 32.495 105.775 31.915V12.275C105.775 10.935 105.625 10.365 105.42 9.78H105.41Z" fill="#00C0F3"/>
<path d="M73.5 5.335H70.805V0.964995C70.805 0.964995 70.805 0.954995 70.805 0.949995C70.805 0.424995 70.38 -0.00500488 69.855 -0.00500488C69.795 -0.00500488 69.735 0.00499512 69.675 0.0149951C66.685 0.834995 67.285 4.975 61.83 5.33H61.3C61.22 5.33 61.145 5.34 61.07 5.355C60.605 5.46 60.255 5.875 60.255 6.37V11.085C60.255 11.66 60.72 12.13 61.3 12.13H64.145V32.12C64.145 32.69 64.605 33.15 65.17 33.15H69.83C70.4 33.15 70.86 32.69 70.86 32.12V12.13H73.5C74.075 12.13 74.54 11.665 74.54 11.085V6.37C74.54 5.795 74.075 5.33 73.5 5.33V5.335Z" fill="#00C0F3"/>
<path d="M56.54 5.33496H51.825C51.25 5.33496 50.785 5.79996 50.785 6.37496V16.125C50.775 16.725 50.285 17.21 49.68 17.21H47.705C47.095 17.21 46.6 16.715 46.6 16.105L46.58 6.37496C46.58 5.79996 46.115 5.33496 45.54 5.33496H40.825C40.25 5.33496 39.78 5.79996 39.78 6.37496V17.06C39.78 21.12 42.675 24.01 46.735 24.01C46.735 24.01 49.78 24.01 49.875 24.03C50.425 24.095 50.855 24.555 50.855 25.12C50.855 25.685 50.435 26.14 49.89 26.21C49.865 26.21 49.84 26.22 49.81 26.225L42.915 26.25C42.34 26.25 41.875 26.715 41.875 27.295V32.01C41.875 32.585 42.34 33.05 42.915 33.05H50.625C54.685 33.05 57.58 30.16 57.58 26.1V6.37496C57.58 5.79996 57.115 5.33496 56.535 5.33496H56.54Z" fill="#213368"/>
<path d="M11.325 5.33496H1.02C0.455 5.33496 0 5.79496 0 6.35496V10.975V10.99C0 11.02 0 11.045 0 11.065V31.965C0 32.535 0.425 32.995 0.955 33.01H5.755C6.33 33.01 6.8 32.545 6.8 31.965L6.82 24.8H11.33C15.105 24.8 17.735 22.185 17.735 18.395V11.745C17.735 7.95496 15.105 5.32996 11.33 5.32996L11.325 5.33496ZM10.91 13.97V16.88C10.91 17.49 10.415 17.985 9.805 17.985H6.815V12.16H9.805C10.415 12.16 10.91 12.655 10.91 13.265V13.975V13.97Z" fill="#213368"/>
<path d="M29.72 5.35999H23.18C22.6 5.35999 22.13 5.79999 22.13 6.33999V8.16999C22.13 8.16999 22.13 8.19499 22.13 8.20499C22.13 8.21999 22.13 8.22998 22.13 8.23998V10.75C22.13 11.325 22.625 11.785 23.24 11.785H29.47C29.96 11.86 30.35 12.22 30.405 12.78V13.39C30.35 13.925 29.965 14.315 29.495 14.36H26.41C22.305 14.36 19.385 17.085 19.385 20.91V26.395C19.385 30.2 21.895 32.905 25.97 32.905H34.52C36.055 32.905 37.3 31.745 37.3 30.315V12.435C37.3 8.09499 35.065 5.35999 29.72 5.35999ZM30.47 25.035V25.77C30.47 25.83 30.46 25.885 30.45 25.945C30.44 25.995 30.425 26.05 30.405 26.1C30.255 26.51 29.845 26.81 29.355 26.81H27.395C26.78 26.81 26.285 26.345 26.285 25.775V24.885C26.285 24.885 26.285 24.865 26.285 24.855V22.49V21.75C26.285 21.175 26.785 20.715 27.395 20.715H29.355C29.97 20.715 30.465 21.18 30.465 21.75V25.045L30.47 25.035Z" fill="#213368"/>
</g>
<defs>
<clipPath id="clip0_193_21">
<rect width="105.77" height="33.15" fill="white"/>
</clipPath>
</defs>
</svg>
