<svg width="39" height="26" viewBox="0 0 39 26" fill="none" xmlns="http://www.w3.org/2000/svg">
<mask id="mask0" mask-type="alpha" maskUnits="userSpaceOnUse" x="0" y="0" width="39" height="26">
<path d="M36.4 0H2.6C1.16406 0 0 1.16406 0 2.6V23.4C0 24.8359 1.16406 26 2.6 26H36.4C37.8359 26 39 24.8359 39 23.4V2.6C39 1.16406 37.8359 0 36.4 0Z" fill="white"/>
</mask>
<g mask="url(#mask0)">
<path d="M39 0H0V26H39V0Z" fill="#32BCAD"/>
</g>
<path d="M25.096 18.2991C24.3118 18.2991 23.5728 17.9941 23.0177 17.439L20.0196 14.4393C19.8098 14.2279 19.4419 14.2295 19.2322 14.4393L16.2195 17.4503C15.6644 18.0054 14.927 18.3104 14.1412 18.3104H13.5506L17.3507 22.1105C18.5367 23.2965 20.4617 23.2965 21.6477 22.1105L25.4575 18.3007H25.096V18.2991Z" fill="white"/>
<path d="M14.1428 7.68797C14.927 7.68797 15.666 7.99294 16.2211 8.54803L19.2321 11.559C19.4483 11.7753 19.8033 11.7769 20.0212 11.559L23.0209 8.55932C23.576 8.00424 24.3134 7.69926 25.0992 7.69926H25.4607L21.6477 3.88951C20.4617 2.7035 18.5367 2.7035 17.3506 3.88951L13.5522 7.68797H14.1428Z" fill="white"/>
<path d="M28.6105 10.8506L26.3079 8.54798C26.2578 8.56896 26.203 8.58026 26.1449 8.58026H25.0976C24.5571 8.58026 24.0262 8.79971 23.6438 9.18214L20.6441 12.1835C20.3633 12.4642 19.9954 12.6046 19.6259 12.6046C19.2563 12.6046 18.8884 12.4642 18.6077 12.1835L15.5967 9.17246C15.2142 8.79003 14.685 8.57058 14.1428 8.57058H12.8551C12.8003 8.57058 12.7486 8.55767 12.7002 8.53992L10.3895 10.8506C9.2035 12.0366 9.2035 13.9617 10.3895 15.1477L12.7018 17.46C12.7502 17.4422 12.8019 17.4293 12.8567 17.4293H14.1444C14.685 17.4293 15.2158 17.2099 15.5983 16.8275L18.6077 13.8148C19.1515 13.271 20.1003 13.271 20.6441 13.8148L23.6438 16.8146C24.0262 17.197 24.5555 17.4164 25.0976 17.4164H26.1449C26.203 17.4164 26.2578 17.4293 26.3079 17.4487L28.6105 15.1461C29.7965 13.9617 29.7965 12.0366 28.6105 10.8506Z" fill="white"/>
</svg>
