<?xml version="1.0" encoding="UTF-8"?>
<svg id="Layer_1" data-name="Layer 1" xmlns="http://www.w3.org/2000/svg" version="1.1" viewBox="0 0 26.4 18.4">
  <defs>
    <style>
      .cls-1 {
        fill: #ffb921;
      }

      .cls-1, .cls-2 {
        stroke-width: 0px;
      }

      .cls-2 {
        fill: #000;
      }

      .cls-3 {
        fill: #bf993b;
        stroke: #000;
        stroke-width: 1.2px;
      }
    </style>
  </defs>
  <path class="cls-3" d="M.6,17.2v.6h6c.8,0,1.4,0,1.8-.1,1.2-.3,2.2-1.3,2.6-2.6.1-.5.1-1,.1-1.8v-.2c0-.8,0-1.4-.1-1.8-.3-1.2-1.3-2.2-2.6-2.5-.5-.1-1-.1-1.8-.1h-.8c-.7,0-1.3,0-1.8,0-.5,0-.9.1-1.3.3-.8.4-1.4,1-1.8,1.8-.2.4-.3.8-.3,1.3,0,.5,0,1.1,0,1.8h0s0,3.4,0,3.4Z"/>
  <path class="cls-1" d="M1.2,13c0-1.3,0-2,.3-2.5.2-.5.6-.8,1-1,.5-.3,1.2-.3,2.5-.3h1.9c1.1,0,1.7,0,2.1.2.6.2,1.1.7,1.3,1.3.2.4.2,1,.2,2.1s0,1.7-.2,2.1c-.2.6-.7,1.1-1.3,1.3-.4.2-1,.2-2.1.2H1.2v-3.4Z"/>
  <path class="cls-2" d="M5.3,15.2c-.5,0-1-.4-1.2-.6-.1-.2-.2-.3-.3-.5l1-.2c.1.2.3.4.5.5h1.3c0,0,.1-.1.2-.2,0,0,.1-.1.1-.2v-.4s0,0,0,0l-2.2-.5c-.4,0-.7-.5-.7-.9v-.4c0-.2,0-.4.2-.6.1-.2.4-.4.6-.5.2-.1.4-.2.6-.2h1.2c.5,0,1,.4,1.2.6.1.2.2.3.3.5l-1,.2c-.1-.2-.3-.4-.5-.5h-1.2c0,0-.1,0-.2.2,0,0-.1,0-.1.2v.4s0,0,0,0l2.2.5c.4,0,.7.5.7.9v.4c0,.2,0,.4-.2.6-.1.2-.4.4-.6.5-.2.1-.4.2-.6.2h-1.4Z"/>
  <path class="cls-3" d="M6.6,17.2v.6h6c.8,0,1.4,0,1.8-.1,1.2-.3,2.2-1.3,2.6-2.6.1-.5.1-1,.1-1.8v-.2c0-.8,0-1.4-.1-1.8-.3-1.2-1.3-2.2-2.6-2.5-.5-.1-1-.1-1.8-.1h-.8c-.7,0-1.3,0-1.8,0-.5,0-.9.1-1.3.3-.8.4-1.4,1-1.8,1.8-.2.4-.3.8-.3,1.3,0,.5,0,1.1,0,1.8h0s0,3.4,0,3.4Z"/>
  <path class="cls-1" d="M7.2,13c0-1.3,0-2,.3-2.5.2-.5.6-.8,1-1,.5-.3,1.2-.3,2.5-.3h1.9c1.1,0,1.7,0,2.1.2.6.2,1.1.7,1.3,1.3.2.4.2,1,.2,2.1s0,1.7-.2,2.1c-.2.6-.7,1.1-1.3,1.3-.4.2-1,.2-2.1.2h-5.7v-3.4Z"/>
  <path class="cls-2" d="M11.3,15.2c-.5,0-1-.4-1.2-.6-.1-.2-.2-.3-.3-.5l1-.2c.1.2.3.4.5.5h1.3c0,0,.1-.1.2-.2,0,0,.1-.1.1-.2v-.4s0,0,0,0l-2.2-.5c-.4,0-.7-.5-.7-.9v-.4c0-.2,0-.4.2-.6.1-.2.4-.4.6-.5.2-.1.4-.2.6-.2h1.2c.5,0,1,.4,1.2.6.1.2.2.3.3.5l-1,.2c-.1-.2-.3-.4-.5-.5h-1.2c0,0-.1,0-.2.2,0,0-.1,0-.1.2v.4s0,0,0,0l2.2.5c.4,0,.7.5.7.9v.4c0,.2,0,.4-.2.6-.1.2-.4.4-.6.5-.2.1-.4.2-.6.2h-1.4Z"/>
  <path class="cls-3" d="M6.6,14.2v.6h6c.8,0,1.4,0,1.8-.1,1.2-.3,2.2-1.3,2.6-2.6.1-.5.1-1,.1-1.8v-.2c0-.8,0-1.4-.1-1.8-.3-1.2-1.3-2.2-2.6-2.5-.5-.1-1-.1-1.8-.1h-.8c-.7,0-1.3,0-1.8,0-.5,0-.9.1-1.3.3-.8.4-1.4,1-1.8,1.8-.2.4-.3.8-.3,1.3,0,.5,0,1.1,0,1.8h0s0,3.4,0,3.4Z"/>
  <path class="cls-1" d="M7.2,10c0-1.3,0-2,.3-2.5.2-.4.6-.8,1-1,.5-.3,1.2-.3,2.5-.3h1.9c1.1,0,1.7,0,2.1.2.6.2,1.1.7,1.3,1.3.2.4.2,1,.2,2.1s0,1.7-.2,2.1c-.2.6-.7,1.1-1.3,1.3-.4.2-1,.2-2.1.2h-5.7v-3.4Z"/>
  <path class="cls-2" d="M11.3,12.2c-.5,0-1-.4-1.2-.6-.1-.2-.2-.3-.3-.5l1-.2c.1.2.3.4.5.5h1.3c0,0,.1-.1.2-.2,0,0,.1-.1.1-.2v-.4s0,0,0,0l-2.2-.5c-.4,0-.7-.5-.7-.9v-.4c0-.2,0-.4.2-.6.1-.2.4-.4.6-.5.2-.1.4-.2.6-.2h1.2c.5,0,1,.4,1.2.6.1.2.2.3.3.5l-1,.2c-.1-.2-.3-.4-.5-.5h-1.2c0,0-.1,0-.2.2,0,0-.1,0-.1.2v.4s0,0,0,0l2.2.5c.4,0,.7.5.7.9v.4c0,.2,0,.4-.2.6-.1.2-.4.4-.6.5-.2.1-.4.2-.6.2h-1.4Z"/>
  <path class="cls-3" d="M13,17.2v.6h7.4c.8,0,1.5,0,2,0,.5,0,1-.1,1.4-.4.7-.3,1.2-.9,1.6-1.6.2-.4.3-.9.3-1.4,0-.5,0-1.2,0-2h0s0-.4,0-.4h0c0-.8,0-1.5,0-2,0-.5-.1-1-.4-1.4-.3-.7-.9-1.2-1.6-1.6-.4-.2-.9-.3-1.4-.3-.5,0-1.2,0-2,0h-2.1c-.8,0-1.5,0-2,0-.5,0-1,.1-1.4.4-.7.3-1.2.9-1.6,1.6-.2.4-.3.9-.3,1.4,0,.5,0,1.2,0,2h0s0,5.2,0,5.2Z"/>
  <path class="cls-1" d="M13.6,12c0-1.7,0-2.5.3-3.2.3-.6.7-1,1.3-1.3.6-.3,1.5-.3,3.2-.3h2.3c1.4,0,2.1,0,2.6.2.7.3,1.3.9,1.6,1.6.2.6.2,1.2.2,2.6s0,2.1-.2,2.6c-.3.7-.9,1.3-1.6,1.6-.5.2-1.2.2-2.6.2h-7.1v-4.2Z"/>
  <path class="cls-2" d="M18.7,14.7c-.7,0-1.2-.5-1.5-.8-.2-.2-.3-.4-.4-.6l1.3-.3c.2.2.3.5.6.6h1.7s0,0,.2-.2.2-.2.2-.2v-.6s0,0,0,0l-2.8-.6c-.6-.1-.9-.6-.9-1.1v-.5c0-.3,0-.4.2-.7.2-.2.5-.5.7-.7.3-.2.5-.2.8-.2h1.5c.7,0,1.2.5,1.5.8.2.2.3.4.4.6l-1.3.3c-.2-.2-.3-.5-.6-.6h-1.5s0,0-.2.2-.2.2-.2.2v.5s0,0,0,0l2.8.6c.6.1.9.6.9,1.1v.6c0,.3,0,.4-.2.7-.2.3-.5.5-.7.7-.3.2-.5.2-.8.2h-1.7Z"/>
  <path class="cls-3" d="M13,14.2v.6h7.4c.8,0,1.5,0,2,0,.5,0,1-.1,1.4-.4.7-.3,1.2-.9,1.6-1.6.2-.4.3-.9.3-1.4,0-.5,0-1.2,0-2h0s0-.4,0-.4h0c0-.8,0-1.5,0-2,0-.5-.1-1-.4-1.4-.3-.7-.9-1.2-1.6-1.6-.4-.2-.9-.3-1.4-.3-.5,0-1.2,0-2,0h-2.1c-.8,0-1.5,0-2,0-.5,0-1,.1-1.4.4-.7.3-1.2.9-1.6,1.6-.2.4-.3.9-.3,1.4,0,.5,0,1.2,0,2h0s0,5.2,0,5.2Z"/>
  <path class="cls-1" d="M13.6,9c0-1.7,0-2.5.3-3.2.3-.6.7-1,1.3-1.3.6-.3,1.5-.3,3.2-.3h2.3c1.4,0,2.1,0,2.6.2.7.3,1.3.9,1.6,1.6.2.6.2,1.2.2,2.6s0,2.1-.2,2.6c-.3.7-.9,1.3-1.6,1.6-.5.2-1.2.2-2.6.2h-7.1v-4.2Z"/>
  <path class="cls-2" d="M18.7,11.7c-.7,0-1.2-.5-1.5-.8-.2-.2-.3-.4-.4-.6l1.3-.3c.2.2.3.5.6.6h1.7s0,0,.2-.2.2-.2.2-.2v-.6s0,0,0,0l-2.8-.6c-.6-.1-.9-.6-.9-1.1v-.5c0-.3,0-.4.2-.7.2-.2.5-.5.7-.7.3-.2.5-.2.8-.2h1.5c.7,0,1.2.5,1.5.8.2.2.3.4.4.6l-1.3.3c-.2-.2-.3-.5-.6-.6h-1.5s0,0-.2.2-.2.2-.2.2v.5s0,0,0,0l2.8.6c.6.1.9.6.9,1.1v.6c0,.3,0,.4-.2.7-.2.3-.5.5-.7.7-.3.2-.5.2-.8.2h-1.7Z"/>
  <path class="cls-3" d="M13,11.2v.6h7.4c.8,0,1.5,0,2,0,.5,0,1-.1,1.4-.4.7-.3,1.2-.9,1.6-1.6.2-.4.3-.9.3-1.4,0-.5,0-1.2,0-2h0s0-.4,0-.4h0c0-.8,0-1.5,0-2,0-.5-.1-1-.4-1.4-.3-.7-.9-1.2-1.6-1.6-.4-.2-.9-.3-1.4-.3-.5,0-1.2,0-2,0h-2.1c-.8,0-1.5,0-2,0-.5,0-1,.1-1.4.4-.7.3-1.2.9-1.6,1.6-.2.4-.3.9-.3,1.4,0,.5,0,1.2,0,2h0s0,5.2,0,5.2Z"/>
  <path class="cls-1" d="M13.6,6c0-1.7,0-2.5.3-3.2.3-.6.7-1,1.3-1.3.6-.3,1.5-.3,3.2-.3h2.3c1.4,0,2.1,0,2.6.2.7.3,1.3.9,1.6,1.6.2.6.2,1.2.2,2.6s0,2.1-.2,2.6c-.3.7-.9,1.3-1.6,1.6-.5.2-1.2.2-2.6.2h-7.1v-4.2Z"/>
  <path class="cls-2" d="M18.7,8.7c-.7,0-1.2-.5-1.5-.8-.2-.2-.3-.4-.4-.6l1.3-.3c.2.2.3.5.6.6h1.7s0,0,.2-.2.2-.2.2-.2v-.6s0,0,0,0l-2.8-.6c-.6-.1-.9-.7-.9-1.1v-.5c0-.3,0-.4.2-.7.2-.2.5-.5.7-.7.3-.2.5-.2.8-.2h1.5c.7,0,1.2.5,1.5.8.2.2.3.4.4.6l-1.3.3c-.2-.2-.3-.5-.6-.6h-1.5s0,0-.2.2-.2.2-.2.2v.5s0,0,0,0l2.8.6c.6.1.9.7.9,1.1v.6c0,.3,0,.4-.2.7-.2.3-.5.5-.7.7-.3.2-.5.2-.8.2h-1.7Z"/>
</svg>