<svg width="28" height="23" fill="none" xmlns="http://www.w3.org/2000/svg"><path d="M18.709.005V0h1.313l.48.097c.32.063.61.146.87.248.261.102.514.22.758.357.244.136.465.275.664.416.197.14.374.288.53.444.155.159.396.2.725.123a9.61 9.61 0 0 0 1.06-.32c.379-.135.753-.289 1.124-.459.37-.17.595-.278.676-.324l.127-.077.005-.007.1-.051.006-.008.007-.005.008-.005.005-.008.025-.007.025-.006-.005.039-.007.038-.026.077-.025.05-.012.039a.91.91 0 0 0-.026.102c-.008.043-.088.213-.24.51a6.4 6.4 0 0 1-.568.907c-.227.306-.43.538-.61.694a5.858 5.858 0 0 0-.362.332c-.059.065-.13.124-.214.179l-.127.084-.05.025-.005.008-.008.005-.007.005-.005.008-.05.026-.006.007-.007.005-.008.005-.005.008-.005.008-.008.005-.007.005-.005.008h.126l.707-.154a12.54 12.54 0 0 0 1.35-.37l.796-.268.101-.05.05-.008L28 2.73v.051l-.013.006-.012.007-.005.008-.008.005-.007.005-.005.008-.005.007-.008.006-.008.005-.005.007-.005.008-.007.005-.026.051-.007.005-.32.434c-.211.286-.325.43-.342.434-.016.005-.04.03-.07.077-.029.047-.207.237-.536.569-.328.332-.65.627-.964.886-.316.26-.476.58-.48.96-.005.377-.024.805-.058 1.281-.034.477-.097.991-.19 1.544a18.56 18.56 0 0 1-.428 1.877c-.194.697-.43 1.378-.707 2.042-.278.664-.569 1.26-.871 1.787-.303.527-.581.974-.834 1.34-.252.366-.509.71-.77 1.034-.26.323-.59.687-.99 1.092-.4.404-.619.625-.656.664-.039.038-.204.177-.495.419-.29.243-.6.486-.934.73-.332.241-.636.443-.914.605-.278.162-.613.346-1.005.554-.39.21-.813.403-1.267.582a19.05 19.05 0 0 1-1.44.497c-.504.154-.992.273-1.464.358-.471.085-1.005.157-1.603.217l-.896.09V23H8.004v-.013l-.215-.012c-.143-.009-.26-.018-.353-.026a41.614 41.614 0 0 1-1.048-.14 14.944 14.944 0 0 1-1.427-.256 18.798 18.798 0 0 1-1.54-.485 14.892 14.892 0 0 1-1.75-.722 68.146 68.146 0 0 1-.909-.46 6.398 6.398 0 0 1-.409-.235l-.227-.14-.005-.008-.007-.005-.008-.005-.005-.007-.05-.026-.006-.008-.007-.005-.008-.005-.005-.008-.005-.007-.007-.005H0v-.051l.025.005.025.008.114.012c.076.009.282.021.619.038a11.285 11.285 0 0 0 2.234-.114c.396-.06.863-.162 1.401-.307a10.27 10.27 0 0 0 1.485-.515c.45-.201.77-.35.96-.45a9.32 9.32 0 0 0 .863-.54l.58-.396.006-.008.007-.005.008-.005.005-.008.005-.008.007-.005.008-.005.005-.008.025-.007.026-.005.005-.026.007-.025.008-.005.005-.008-.202-.013a93.732 93.732 0 0 1-.392-.025 3.757 3.757 0 0 1-.593-.115c-.27-.068-.56-.17-.87-.307a6.685 6.685 0 0 1-.91-.485 4.478 4.478 0 0 1-.639-.467c-.13-.122-.298-.296-.505-.52a5.153 5.153 0 0 1-.535-.697 6.28 6.28 0 0 1-.434-.825l-.21-.464-.025-.077-.007-.026-.006-.025.038.005.038.008.278.038c.185.025.475.034.871.025a6.68 6.68 0 0 0 .82-.05c.152-.026.245-.043.278-.052l.05-.012.127-.026.005-.008.008-.005.007-.005.005-.008-.252-.063a4.489 4.489 0 0 1-.177-.051 9.588 9.588 0 0 1-.682-.281 5.194 5.194 0 0 1-.883-.472 6.111 6.111 0 0 1-.626-.503 7.194 7.194 0 0 1-.65-.71 5.114 5.114 0 0 1-.63-1.008 6.174 6.174 0 0 1-.417-1.098 5.987 5.987 0 0 1-.182-1.06l-.045-.535.025.005.025.007.101.051.391.18c.261.118.585.22.973.305.387.086.618.132.694.14l.113.014h.228L3.63 8.76l-.008-.005-.007-.005-.006-.008-.005-.008-.007-.005-.008-.005-.005-.007-.05-.026-.005-.008-.008-.005-.007-.005-.006-.008-.05-.025-.005-.008a31.256 31.256 0 0 1-.217-.163 3.326 3.326 0 0 1-.434-.416c-.152-.17-.303-.35-.455-.536a4.142 4.142 0 0 1-.404-.6 7.31 7.31 0 0 1-.374-.812 5.81 5.81 0 0 1-.409-1.97c-.008-.324 0-.6.026-.83.025-.23.075-.49.151-.779.076-.29.185-.595.328-.919l.215-.485.025-.076.008-.005.005-.008.005-.008.007-.005.008.005.005.008.005.008.008.005.007.005.005.007.005.008.008.005.025.051.008.005.005.008.34.383c.228.255.497.54.809.855.311.315.484.478.517.49a.371.371 0 0 1 .126.118c.05.063.22.213.505.451.287.239.661.515 1.124.83.463.315.976.625 1.54.932.564.306 1.17.583 1.818.83.648.246 1.102.408 1.363.484.261.077.707.175 1.338.294.632.12 1.107.196 1.427.23.32.034.539.053.656.058l.177.006-.005-.039-.008-.038-.05-.32a6.072 6.072 0 0 1-.05-.893c0-.382.029-.736.088-1.059.059-.323.147-.65.265-.983.118-.332.233-.598.346-.799.114-.199.264-.426.45-.681.184-.256.424-.52.719-.792a5.31 5.31 0 0 1 1.01-.727A6.53 6.53 0 0 1 17.573.28c.32-.11.589-.183.808-.217a2.78 2.78 0 0 0 .328-.059z" fill="#fff"/></svg>