<svg width="38" height="33" viewBox="0 0 38 33" fill="none" xmlns="http://www.w3.org/2000/svg">
  <g filter="url(#filter0_i_1986_38660)">
    <path d="M5.67868 2.73108C5.67868 5.0627 3.83111 6.95285 1.552 6.95286V10.371C1.68536 10.3433 1.82339 10.3288 1.96475 10.3288C3.1043 10.3288 4.02809 11.2738 4.02809 12.4396C4.02809 13.6055 3.1043 14.5505 1.96475 14.5505C1.82339 14.5505 1.68536 14.536 1.552 14.5083V18.8149C1.68536 18.7872 1.82338 18.7727 1.96473 18.7727C3.10428 18.7727 4.02808 19.7177 4.02808 20.8835C4.02808 22.0494 3.10428 22.9944 1.96473 22.9944C1.82338 22.9944 1.68536 22.9799 1.552 22.9522V26.3733C3.83062 26.3733 5.6779 28.2626 5.6787 30.5935H32.9149C32.9156 28.2625 34.7629 26.373 37.0416 26.373V22.9522C36.9083 22.9799 36.7703 22.9944 36.629 22.9944C35.4894 22.9944 34.5656 22.0494 34.5656 20.8835C34.5656 19.7177 35.4894 18.7727 36.629 18.7727C36.7703 18.7727 36.9083 18.7872 37.0416 18.8149V14.5083C36.9083 14.536 36.7703 14.5505 36.629 14.5505C35.4894 14.5505 34.5656 13.6055 34.5656 12.4396C34.5656 11.2738 35.4894 10.3288 36.629 10.3288C36.7703 10.3288 36.9083 10.3433 37.0416 10.371V6.95286C34.7625 6.95286 32.9149 5.0627 32.9149 2.73108H5.67868Z" fill="url(#paint0_linear_1986_38660)" fill-opacity="0.39"/>
  </g>
  <path d="M1.552 6.70286L1.302 6.70286V6.95286V10.371V10.6783L1.60284 10.6158C1.71959 10.5915 1.84059 10.5788 1.96475 10.5788C2.96089 10.5788 3.7781 11.4065 3.7781 12.4396C3.7781 13.4728 2.96089 14.3005 1.96475 14.3005C1.84059 14.3005 1.71959 14.2878 1.60284 14.2635L1.302 14.201V14.5083V18.8149V19.1222L1.60284 19.0597C1.71958 19.0354 1.84057 19.0227 1.96473 19.0227C2.96087 19.0227 3.77808 19.8504 3.77808 20.8835C3.77808 21.9167 2.96087 22.7444 1.96473 22.7444C1.84057 22.7444 1.71958 22.7317 1.60284 22.7074L1.302 22.6449V22.9522V26.3733V26.6233H1.552C3.68724 26.6233 5.42794 28.3953 5.4287 30.5936L5.42879 30.8435H5.6787H32.9149H33.1648L33.1649 30.5936C33.1655 28.3952 34.9063 26.623 37.0416 26.623H37.2916V26.373V22.9522V22.645L36.9908 22.7074C36.8741 22.7317 36.7531 22.7444 36.629 22.7444C35.6328 22.7444 34.8156 21.9167 34.8156 20.8835C34.8156 19.8504 35.6328 19.0227 36.629 19.0227C36.7531 19.0227 36.8741 19.0354 36.9908 19.0597L37.2916 19.1221V18.8149V14.5083V14.2011L36.9908 14.2635C36.8741 14.2878 36.7531 14.3005 36.629 14.3005C35.6328 14.3005 34.8156 13.4728 34.8156 12.4396C34.8156 11.4065 35.6328 10.5788 36.629 10.5788C36.7531 10.5788 36.8741 10.5915 36.9908 10.6158L37.2916 10.6782V10.371V6.95286V6.70286H37.0416C34.9059 6.70286 33.1649 4.93003 33.1649 2.73108V2.48108H32.9149H5.67868H5.42868V2.73108C5.42868 4.93002 3.6877 6.70285 1.552 6.70286Z" stroke="url(#paint1_linear_1986_38660)" stroke-opacity="0.47" stroke-width="0.5"/>
  <defs>
    <filter id="filter0_i_1986_38660" x="1.052" y="2.23108" width="36.4895" height="28.8624" filterUnits="userSpaceOnUse" color-interpolation-filters="sRGB">
      <feFlood flood-opacity="0" result="BackgroundImageFix"/>
      <feBlend mode="normal" in="SourceGraphic" in2="BackgroundImageFix" result="shape"/>
      <feColorMatrix in="SourceAlpha" type="matrix" values="0 0 0 0 0 0 0 0 0 0 0 0 0 0 0 0 0 0 127 0" result="hardAlpha"/>
      <feOffset dx="1" dy="1"/>
      <feComposite in2="hardAlpha" operator="arithmetic" k2="-1" k3="1"/>
      <feColorMatrix type="matrix" values="0 0 0 0 0.517647 0 0 0 0 0.203922 0 0 0 0 0.054902 0 0 0 0.4 0"/>
      <feBlend mode="normal" in2="shape" result="effect1_innerShadow_1986_38660"/>
    </filter>
    <linearGradient id="paint0_linear_1986_38660" x1="8.99594" y1="2.88075" x2="19.2968" y2="30.5935" gradientUnits="userSpaceOnUse">
      <stop stop-color="#99490F"/>
      <stop offset="1" stop-color="#99490F" stop-opacity="0.27"/>
    </linearGradient>
    <linearGradient id="paint1_linear_1986_38660" x1="19.2968" y1="2.73108" x2="19.2968" y2="30.5935" gradientUnits="userSpaceOnUse">
      <stop stop-color="#99490F"/>
      <stop offset="1" stop-color="white" stop-opacity="0.88"/>
    </linearGradient>
  </defs>
</svg>